<svg xmlns="http://www.w3.org/2000/svg" version="1.1" xmlns:xlink="http://www.w3.org/1999/xlink" xmlns:svgjs="http://svgjs.dev/svgjs" width="100%" height="100%" viewBox="0 0 1000 600"><rect width="1000" height="600" x="0" y="0" fill="#022930"/><g><rect width="333.3333333333333" height="333.3333333333333" y="347.6028511248082" fill="#ffffff" transform="matrix(0.3841653826243848,0,0,0.3841653826243848,0,102.43543113063177)" x="325.38055419921875"/><path d="M482.9634026661478 546.6635219746072Q482.9634026661478 559.3222437775944 476.63404176465417 568.9041929201333Q470.30468086316057 578.5154446594386 458.29061618902915 583.9071224644144Q446.27655151489773 589.2694976726243 429.80849213230783 589.2694976726243L429.80849213230783 589.2694976726243Q413.9850898785737 589.2694976726243 401.00403951115857 584.5224769965041Q388.0229891437434 579.7754563203839 378.76336856563233 570.9260720969994L378.76336856563233 570.9260720969994L389.7225397561815 558.4724684713754Q397.7514512701132 566.0618410338145 407.5385185900154 570.0762967907804Q417.3548885066838 574.0907525477462 430.01361030967104 574.0907525477462L430.01361030967104 574.0907525477462Q444.3718827250964 574.0907525477462 454.07104225470005 567.1167345173967Q463.7702017843037 560.1720190838134 463.7702017843037 547.0737583293335L463.7702017843037 547.0737583293335Q463.7702017843037 539.6895039442577 461.0450602850495 534.8545754778389Q458.29061618902915 529.9903444146539 451.43380854574434 526.1810068350513Q444.5770009024596 522.4009718522149 432.1233972768356 518.7967524499754L432.1233972768356 518.7967524499754Q408.50550428329916 511.85203701639216 396.90167596389415 502.4459034544503Q385.2978476444892 493.0690724892745 385.2978476444892 476.83543388081404L385.2978476444892 476.83543388081404Q385.2978476444892 466.0520782708619 391.1876695944902 457.4078122248405Q397.1067941412574 448.7635461788191 407.8608471544433 444.0165255026989Q418.61490016762923 439.2695048265787 432.3285154541988 439.2695048265787L432.3285154541988 439.2695048265787Q446.68678786962414 439.2695048265787 457.9682876246012 443.4890787609078Q469.24978737957827 447.7086526952368 478.7438287318187 455.94268238653177L478.7438287318187 455.94268238653177L467.78465754126955 467.7516288833Q452.81103059375454 454.6826707255863 432.97317258305463 454.6826707255863L432.97317258305463 454.6826707255863Q420.3144507800674 454.6826707255863 412.0804210887724 460.1622563208609Q403.8463913974775 465.64184191613543 403.8463913974775 476.1907767519582L403.8463913974775 476.1907767519582Q403.8463913974775 482.5201376534518 407.2454926223537 486.9448297651441Q410.6152912504637 491.3695218768364 418.4097819902661 495.17885945643906Q426.2335753268345 498.9881970360417 440.35742696813054 502.97335019624137L440.35742696813054 502.97335019624137Q460.8106395109201 508.89247474300856 471.88702108853397 518.386516095249Q482.9634026661478 527.8805574474895 482.9634026661478 546.6635219746072L482.9634026661478 546.6635219746072ZM575.178674689298 572.5963201126713L605.3310467616911 572.5963201126713L605.3310467616911 586.9545925280966L521.5842252039654 586.9545925280966L521.5842252039654 572.5963201126713L557.2454854683995 572.5963201126713L557.2454854683995 461.0120316270799L524.1042485258564 481.0550078151431L516.309757786054 468.6014041895191L559.5603906129271 441.5844099711065L575.178674689298 441.5844099711065L575.178674689298 572.5963201126713Z " fill="#022930" transform="matrix(0.3841653826243848,0,0,0.3841653826243848,0,102.43543113063177)"/><path d="M817.258712716656 527.9116381156327Q817.258712716656 537.0486941891022 812.6901846799212 543.9649380224922Q808.1216566431865 550.902332448645 799.4499136104957 554.7940415169744Q790.7781705778048 558.6645999925413 778.8915374451896 558.6645999925413L778.8915374451896 558.6645999925413Q767.4702173533528 558.6645999925413 758.1005047594942 555.2382039649904Q748.7307921656354 551.8118079374393 742.0472048526348 545.4243289231158L742.0472048526348 545.4243289231158L749.9575265458698 536.435326998985Q755.7527889628388 541.9133305245141 762.8170869455676 544.8109617329986Q769.9025355210588 547.7085929414832 779.0395915945282 547.7085929414832L779.0395915945282 547.7085929414832Q789.4033820482318 547.7085929414832 796.4042282526725 542.67475186397Q803.4050744571132 537.6620613792193 803.4050744571132 528.2077464143101L803.4050744571132 528.2077464143101Q803.4050744571132 522.8777970381195 801.4380693301857 519.3879492322806Q799.4499136104957 515.8769508336788 794.5006749040331 513.127373774533Q789.5514361975705 510.3989473081498 780.5624342734397 507.7974243983425L780.5624342734397 507.7974243983425Q763.5150565067353 502.784733913592 755.1394217727217 495.9953936367779Q746.7637870387081 489.2272039527265 746.7637870387081 477.5097755622125L746.7637870387081 477.5097755622125Q746.7637870387081 469.72635742555343 751.0150561840028 463.4869325605685Q755.2874759220604 457.24750769558364 763.0497434659567 453.8211116680326Q770.8120110098532 450.3947156404816 780.7104884227783 450.3947156404816L780.7104884227783 450.3947156404816Q791.0742788764821 450.3947156404816 799.2172570901064 453.4404009983047Q807.3602353037309 456.4860863561278 814.2130273588327 462.4294029224355L814.2130273588327 462.4294029224355L806.3027056655977 470.9530918057877Q795.4947527638782 461.51992743364104 781.1758014635569 461.51992743364104L781.1758014635569 461.51992743364104Q772.0387453900876 461.51992743364104 766.0954288237799 465.4750882802586Q760.1521122574723 469.43024912687616 760.1521122574723 477.04446252143396L760.1521122574723 477.04446252143396Q760.1521122574723 481.6129905581687 762.605581017941 484.80673006533044Q765.0378991856469 488.0004695724922 770.6639568605146 490.75004663163804Q776.3111651281449 493.49962369078395 786.5057508397474 496.3761043065058L786.5057508397474 496.3761043065058Q801.2688645880845 500.64852404456326 809.2637886523703 507.5013160996653Q817.258712716656 514.3541081547673 817.258712716656 527.9116381156327L817.258712716656 527.9116381156327ZM899.6614221199818 539.4810123568082Q899.6614221199818 544.1975945428815 901.1842647988933 546.4184067829608Q902.707107477805 548.6180684302776 906.196955283644 549.6755980684106L906.196955283644 549.6755980684106L903.0032157764822 558.81265414188Q891.2857873859682 557.2898114629684 888.3881561774838 547.3913340500433L888.3881561774838 547.3913340500433Q884.1157364394262 552.890488168335 877.643655054052 555.7669687840569Q871.1715736686779 558.6645999925413 863.2612519754427 558.6645999925413L863.2612519754427 558.6645999925413Q851.2265646934889 558.6645999925413 844.2891702673362 551.959862086778Q837.3729264339463 545.2762747737772 837.3729264339463 534.003008831279L837.3729264339463 534.003008831279Q837.3729264339463 521.6722132506479 847.038747326482 514.9674753448844Q856.704568219018 508.26273743912105 874.8306262166182 508.26273743912105L874.8306262166182 508.26273743912105L886.7172593492335 508.26273743912105L886.7172593492335 501.7060536826963Q886.7172593492335 493.18236479934404 881.8314724210588 489.4598604731158Q876.966836085647 485.7162055541248 867.6817258628389 485.7162055541248L867.6817258628389 485.7162055541248Q858.5446697893694 485.7162055541248 846.8060908060929 489.84057114284366L846.8060908060929 489.84057114284366L843.316243000254 480.09014787925713Q857.4659895584739 475.05630680174386 869.6487309897664 475.05630680174386L869.6487309897664 475.05630680174386Q884.2637905887648 475.05630680174386 891.9626063543733 481.9090988568459Q899.6614221199818 488.761890911948 899.6614221199818 500.94463234324047L899.6614221199818 500.94463234324047L899.6614221199818 539.4810123568082ZM866.4549914826046 549.0833814710561Q872.3983080489122 549.0833814710561 877.7917092033906 546.0376961132329Q883.2062609506318 542.9920107554099 886.7172593492335 537.6620613792193L886.7172593492335 537.6620613792193L886.7172593492335 517.1036852139132L875.1267345152955 517.1036852139132Q862.3517764866485 517.1036852139132 856.704568219018 521.354954359208Q851.0785105441503 525.6273740972654 851.0785105441503 533.8549546819404L851.0785105441503 533.8549546819404Q851.0785105441503 549.0833814710561 866.4549914826046 549.0833814710561L866.4549914826046 549.0833814710561ZM986.2942500758397 475.05630680174386Q993.1470421309418 475.05630680174386 997.50406424005 479.85749135886783Q1001.8399357563953 484.6586759159918 1001.8399357563953 497.3067303880629L1001.8399357563953 497.3067303880629L1001.8399357563953 556.9937031642912L990.1013567731186 556.9937031642912L990.1013567731186 499.4217896643289Q990.1013567731186 491.0461549303153 989.0438271349856 488.0850719435428Q987.9862974968526 485.12398895677035 983.8619319081338 485.12398895677035L983.8619319081338 485.12398895677035Q976.0996643642372 485.12398895677035 969.8602394992524 494.7052074782556L969.8602394992524 494.7052074782556L969.8602394992524 556.9937031642912L957.9736063666371 556.9937031642912L957.9736063666371 499.4217896643289Q957.9736063666371 491.0461549303153 956.9160767285041 488.0850719435428Q955.8373964976086 485.12398895677035 951.7341815016523 485.12398895677035L951.7341815016523 485.12398895677035Q943.9719139577558 485.12398895677035 937.732489092771 494.7052074782556L937.732489092771 494.7052074782556L937.732489092771 556.9937031642912L925.9939101094942 556.9937031642912L925.9939101094942 476.74835422275675L935.8923875224195 476.74835422275675L936.801863011214 486.18151859490337Q940.4609155591543 480.8515692187129 944.5006787768223 477.9539380102284Q948.5404419944905 475.05630680174386 954.1664996693582 475.05630680174386L954.1664996693582 475.05630680174386Q965.4397656118563 475.05630680174386 968.6335051190181 485.7162055541248L968.6335051190181 485.7162055541248Q972.2925576669584 480.5554609200356 976.3957726629146 477.80588386088976Q980.5201382516334 475.05630680174386 986.2942500758397 475.05630680174386L986.2942500758397 475.05630680174386ZM1082.4025435893698 539.4810123568082Q1082.4025435893698 544.1975945428815 1083.9253862682813 546.4184067829608Q1085.4482289471928 548.6180684302776 1088.938076753032 549.6755980684106L1088.938076753032 549.6755980684106L1085.74433724587 558.81265414188Q1074.0269088553562 557.2898114629684 1071.1292776468715 547.3913340500433L1071.1292776468715 547.3913340500433Q1066.8568579088142 552.890488168335 1060.38477652344 555.7669687840569Q1053.9126951380658 558.6645999925413 1046.0023734448307 558.6645999925413L1046.0023734448307 558.6645999925413Q1033.9676861628768 558.6645999925413 1027.0302917367242 551.959862086778Q1020.114047903334 545.2762747737772 1020.114047903334 534.003008831279L1020.114047903334 534.003008831279Q1020.114047903334 521.6722132506479 1029.77986879587 514.9674753448844Q1039.445689688406 508.26273743912105 1057.5717476860061 508.26273743912105L1057.5717476860061 508.26273743912105L1069.4583808186214 508.26273743912105L1069.4583808186214 501.7060536826963Q1069.4583808186214 493.18236479934404 1064.5725938904468 489.4598604731158Q1059.7079575550347 485.7162055541248 1050.4228473322269 485.7162055541248L1050.4228473322269 485.7162055541248Q1041.2857912587574 485.7162055541248 1029.547212275481 489.84057114284366L1029.547212275481 489.84057114284366L1026.0573644696417 480.09014787925713Q1040.2071110278616 475.05630680174386 1052.3898524591543 475.05630680174386L1052.3898524591543 475.05630680174386Q1067.0049120581527 475.05630680174386 1074.7037278237613 481.9090988568459Q1082.4025435893698 488.761890911948 1082.4025435893698 500.94463234324047L1082.4025435893698 500.94463234324047L1082.4025435893698 539.4810123568082ZM1049.1961129519925 549.0833814710561Q1055.1394295183002 549.0833814710561 1060.5328306727786 546.0376961132329Q1065.9473824200197 542.9920107554099 1069.4583808186214 537.6620613792193L1069.4583808186214 537.6620613792193L1069.4583808186214 517.1036852139132L1057.8678559846833 517.1036852139132Q1045.0928979560363 517.1036852139132 1039.445689688406 521.354954359208Q1033.8196320135382 525.6273740972654 1033.8196320135382 533.8549546819404L1033.8196320135382 533.8549546819404Q1033.8196320135382 549.0833814710561 1049.1961129519925 549.0833814710561L1049.1961129519925 549.0833814710561ZM1170.4101600748006 475.05630680174386Q1175.2959470029753 475.05630680174386 1181.6834260172986 476.74835422275675L1181.6834260172986 476.74835422275675L1179.86447503971 503.9903177010636L1169.5006845860062 503.9903177010636L1169.5006845860062 486.79488578502054L1168.7392632465505 486.79488578502054Q1150.1690428009344 486.79488578502054 1142.3856246642752 513.2965785166343L1142.3856246642752 513.2965785166343L1142.3856246642752 547.095225751366L1158.6927316842866 547.095225751366L1158.6927316842866 556.9937031642912L1116.9626121635572 556.9937031642912L1116.9626121635572 547.095225751366L1129.6106666356281 547.095225751366L1129.6106666356281 486.6468316356819L1116.9626121635572 486.6468316356819L1116.9626121635572 476.74835422275675L1139.1918851571136 476.74835422275675L1141.6242033248195 495.7838877091513Q1146.5099902529942 485.42009725544756 1153.2781799370455 480.2382020285957Q1160.0675202138596 475.05630680174386 1170.4101600748006 475.05630680174386L1170.4101600748006 475.05630680174386ZM1249.3018710795247 546.6299127105874L1271.0658310323024 546.6299127105874L1271.0658310323024 556.9937031642912L1210.6174369166185 556.9937031642912L1210.6174369166185 546.6299127105874L1236.3577083087764 546.6299127105874L1236.3577083087764 466.0884554703758L1212.4363878942072 480.5554609200356L1206.8103302193394 471.56645899590484L1238.0286051370265 452.0656124687318L1249.3018710795247 452.0656124687318L1249.3018710795247 546.6299127105874ZM1311.7384209148988 443.2458152867023L1311.7384209148988 487.85241542315356Q1316.4550031009724 481.7610447075073 1323.3077951560742 478.41925105100694Q1330.1605872111763 475.05630680174386 1337.478692307057 475.05630680174386L1337.478692307057 475.05630680174386Q1360.0040735992905 475.05630680174386 1360.0040735992905 498.82957306697443L1360.0040735992905 498.82957306697443L1360.0040735992905 556.9937031642912L1347.207964977881 556.9937031642912L1347.207964977881 498.97762721631307Q1347.207964977881 491.8075762697711 1343.8661713213803 488.55038498432134Q1340.5243776648801 485.272043106109 1333.2062725689996 485.272043106109L1333.2062725689996 485.272043106109Q1326.9668477040145 485.272043106109 1321.1715852870457 489.2272039527265Q1315.3974734628391 493.18236479934404 1311.7384209148988 498.5123141755345L1311.7384209148988 498.5123141755345L1311.7384209148988 556.9937031642912L1298.942312293489 556.9937031642912L1298.942312293489 444.59945322351257L1311.7384209148988 443.2458152867023ZM1407.212196645549 545.2762747737772Q1407.212196645549 539.6290665061467 1411.1039057138787 535.7585080305798Q1414.9744641894456 531.8667989622504 1420.6216724570759 531.8667989622504L1420.6216724570759 531.8667989622504Q1426.3957842812822 531.8667989622504 1430.202890978561 535.7585080305798Q1434.00999767584 539.6290665061467 1434.00999767584 545.2762747737772L1434.00999767584 545.2762747737772Q1434.00999767584 551.0503865979836 1430.202890978561 554.8574932952624Q1426.3957842812822 558.6645999925413 1420.6216724570759 558.6645999925413L1420.6216724570759 558.6645999925413Q1414.9744641894456 558.6645999925413 1411.1039057138787 554.7940415169744Q1407.212196645549 550.902332448645 1407.212196645549 545.2762747737772L1407.212196645549 545.2762747737772ZM1547.017614806736 468.37271948874314L1550.8247215040149 480.38625617793434Q1546.2561934672801 481.9090988568459 1540.9262440910895 482.28980952657383Q1535.596294714899 482.6705201963017 1527.3687141302241 482.6705201963017L1527.3687141302241 482.6705201963017Q1541.3704065391055 489.07914980338785 1541.3704065391055 502.93278806293057L1541.3704065391055 502.93278806293057Q1541.3704065391055 515.1155294942231 1533.3120306965318 522.6451405177304Q1525.2325042611953 530.1959021340001 1511.230811852314 530.1959021340001L1511.230811852314 530.1959021340001Q1504.0607609057722 530.1959021340001 1499.19612457036 528.52500530575L1499.19612457036 528.52500530575Q1497.3771735927714 529.8786432425602 1496.2350415835879 532.014853111589Q1495.0929095744038 534.1510629806177 1495.0929095744038 536.2872728496463L1495.0929095744038 536.2872728496463Q1495.0929095744038 543.1400649047484 1505.752808326785 543.1400649047484L1505.752808326785 543.1400649047484L1520.2198137764449 543.1400649047484Q1528.1301354696798 543.1400649047484 1534.6022168550542 545.9530937421823Q1541.0742982404283 548.7661225796162 1544.7968025666567 553.7999636571294Q1548.5404574856473 558.81265414188 1548.5404574856473 564.9040248575262L1548.5404574856473 564.9040248575262Q1548.5404574856473 576.6426038408028 1538.5573777016716 582.9666310768384Q1528.5954485104585 589.2695077201113 1510.3213363635198 589.2695077201113L1510.3213363635198 589.2695077201113Q1491.729965325141 589.2695077201113 1484.1157519305832 583.495395895905Q1476.5015385360255 577.7001334789359 1476.5015385360255 565.0732295996274L1476.5015385360255 565.0732295996274L1488.0709127772009 565.0732295996274Q1488.0709127772009 570.0859200843781 1489.9744661258403 573.0681536639133Q1491.8780194744795 576.0292366506858 1496.6792040316034 577.4674769585467Q1501.4803885887277 578.9268678591702 1510.3213363635198 578.9268678591702L1510.3213363635198 578.9268678591702Q1523.265499134268 578.9268678591702 1529.4203216282021 575.5639236099073Q1535.596294714899 572.2221299534069 1535.596294714899 565.665446196982L1535.596294714899 565.665446196982Q1535.596294714899 560.1874426714529 1530.562453637386 557.2263596846803Q1525.5497631526353 554.2441261051454 1517.6182908666376 554.2441261051454L1517.6182908666376 554.2441261051454L1503.2993395663163 554.2441261051454Q1493.400862153391 554.2441261051454 1488.240117519302 549.9082545887998Q1483.0582222924502 545.5723830724544 1483.0582222924502 539.0156993160297L1483.0582222924502 539.0156993160297Q1483.0582222924502 535.2085926187508 1485.3424863108173 531.4860882925225Q1487.626750329185 527.7635839662942 1491.8780194744795 525.0140069071483L1491.8780194744795 525.0140069071483Q1485.0252274193774 521.5030085085466 1481.7680361339278 516.1096073540682Q1478.4896942557154 510.69505560682705 1478.4896942557154 502.93278806293057L1478.4896942557154 502.93278806293057Q1478.4896942557154 494.85326162759424 1482.5294574733837 488.55038498432134Q1486.5480700982891 482.2263577482858 1493.7815728231192 478.6519075713962Q1501.015075547949 475.05630680174386 1510.4693905128584 475.05630680174386L1510.4693905128584 475.05630680174386Q1524.1749746230623 475.05630680174386 1531.3238749768418 473.5334641228323Q1538.4939259233836 472.01062144392074 1547.017614806736 468.37271948874314L1547.017614806736 468.37271948874314ZM1510.3213363635198 484.5106217666532Q1501.015075547949 484.5106217666532 1496.2984933618757 489.4598604731158Q1491.5819111758026 494.40909917957833 1491.5819111758026 502.93278806293057L1491.5819111758026 502.93278806293057Q1491.5819111758026 511.4564769462828 1496.3830957329262 516.5537698020839Q1501.1842802900503 521.6722132506479 1510.617444662197 521.6722132506479L1510.617444662197 521.6722132506479Q1519.141133545549 521.6722132506479 1523.6462098039958 516.7229745441853Q1528.1301354696798 511.77373583772277 1528.1301354696798 502.784733913592L1528.1301354696798 502.784733913592Q1528.1301354696798 484.5106217666532 1510.3213363635198 484.5106217666532L1510.3213363635198 484.5106217666532ZM1603.5108480758024 439.2695038473221Q1607.78326781386 439.2695038473221 1610.3636401309043 441.7864243860787Q1612.944012447949 444.3033449248353 1612.944012447949 448.25850577145286L1612.944012447949 448.25850577145286Q1612.944012447949 452.21366661807036 1610.3636401309043 454.73058715682697Q1607.78326781386 457.24750769558364 1603.5108480758024 457.24750769558364L1603.5108480758024 457.24750769558364Q1599.4076330798462 457.24750769558364 1596.8907125410897 454.73058715682697Q1594.373792002333 452.21366661807036 1594.373792002333 448.25850577145286L1594.373792002333 448.25850577145286Q1594.373792002333 444.3033449248353 1596.8907125410897 441.7864243860787Q1599.4076330798462 439.2695038473221 1603.5108480758024 439.2695038473221L1603.5108480758024 439.2695038473221ZM1613.705433787405 476.74835422275675L1613.705433787405 546.7991174526887L1636.2519656724012 546.7991174526887L1636.2519656724012 556.9937031642912L1576.2477340047328 556.9937031642912L1576.2477340047328 546.7991174526887L1600.9304757587577 546.7991174526887L1600.9304757587577 486.9429399343592L1577.0091553441887 486.9429399343592L1577.0091553441887 476.74835422275675L1613.705433787405 476.74835422275675ZM1728.2358935972122 552.890488168335Q1724.1115280084935 555.6189146347183 1718.2528138132363 557.1417573136298Q1712.3940996179792 558.6645999925413 1706.5988372010104 558.6645999925413L1706.5988372010104 558.6645999925413Q1693.971933321702 558.6645999925413 1686.80188237516 552.0444644578286Q1679.6529820213807 545.4243289231158 1679.6529820213807 534.6163760213963L1679.6529820213807 534.6163760213963L1679.6529820213807 486.79488578502054L1661.2308157251034 486.79488578502054L1661.2308157251034 476.74835422275675L1679.6529820213807 476.74835422275675L1679.6529820213807 458.62229622515656L1692.4490906427902 457.099453546245L1692.4490906427902 476.74835422275675L1720.3044213112146 476.74835422275675L1718.6335244829643 486.79488578502054L1692.4490906427902 486.79488578502054L1692.4490906427902 534.4471712792949Q1692.4490906427902 541.299963334397 1696.1081431907307 544.66290758366Q1699.7460451459083 548.0047012401603 1707.8255715812447 548.0047012401603L1707.8255715812447 548.0047012401603Q1716.0531521659198 548.0047012401603 1723.202052519699 544.1975945428815L1723.202052519699 544.1975945428815L1728.2358935972122 552.890488168335ZM1768.5912245883685 443.2458152867023L1768.5912245883685 487.85241542315356Q1773.307806774442 481.7610447075073 1780.160598829544 478.41925105100694Q1787.0133908846462 475.05630680174386 1794.3314959805268 475.05630680174386L1794.3314959805268 475.05630680174386Q1816.8568772727601 475.05630680174386 1816.8568772727601 498.82957306697443L1816.8568772727601 498.82957306697443L1816.8568772727601 556.9937031642912L1804.0607686513506 556.9937031642912L1804.0607686513506 498.97762721631307Q1804.0607686513506 491.8075762697711 1800.71897499485 488.55038498432134Q1797.3771813383498 485.272043106109 1790.0590762424692 485.272043106109L1790.0590762424692 485.272043106109Q1783.819651377484 485.272043106109 1778.0243889605151 489.2272039527265Q1772.250277136309 493.18236479934404 1768.5912245883685 498.5123141755345L1768.5912245883685 498.5123141755345L1768.5912245883685 556.9937031642912L1755.795115966959 556.9937031642912L1755.795115966959 444.59945322351257L1768.5912245883685 443.2458152867023ZM1859.9617853230627 476.74835422275675L1859.9617853230627 533.6857499398391Q1859.9617853230627 541.4691680764982 1863.240127201275 545.0436182533879Q1866.4973184867247 548.6180684302776 1873.519315283928 548.6180684302776L1873.519315283928 548.6180684302776Q1879.9067942982517 548.6180684302776 1885.850110864559 544.9590158823373Q1891.793427430867 541.299963334397 1895.283275236706 535.8219598088679L1895.283275236706 535.8219598088679L1895.283275236706 476.74835422275675L1908.0793838581155 476.74835422275675L1908.0793838581155 556.9937031642912L1897.1233768070576 556.9937031642912L1896.0446965761619 546.1857502625716Q1891.3281143900883 552.1290668288792 1884.3907199639355 555.3862581143289Q1877.4744761305453 558.6645999925413 1870.3044251840035 558.6645999925413L1870.3044251840035 558.6645999925413Q1858.883105092167 558.6645999925413 1853.0243908969098 552.5732292768951Q1847.1656767016532 546.4818585612488 1847.1656767016532 535.060538469412L1847.1656767016532 535.060538469412L1847.1656767016532 476.74835422275675L1859.9617853230627 476.74835422275675ZM1951.3323460577565 487.2390482330364Q1960.6174562805647 475.05630680174386 1974.323040390769 475.05630680174386L1974.323040390769 475.05630680174386Q1989.6995213292232 475.05630680174386 1997.0176264251033 486.03346444556473Q2004.3145809282212 496.98947149662297 2004.3145809282212 516.7864263224733L2004.3145809282212 516.7864263224733Q2004.3145809282212 535.6739056595293 1995.938946194208 547.1798281224167Q1987.563311460194 558.6645999925413 1972.50408941318 558.6645999925413L1972.50408941318 558.6645999925413Q1958.6293005608743 558.6645999925413 1950.7189788676394 548.6180684302776L1950.7189788676394 548.6180684302776L1949.8095033788447 556.9937031642912L1938.536237436347 556.9937031642912L1938.536237436347 444.45139907417393L1951.3323460577565 442.9285563952624L1951.3323460577565 487.2390482330364ZM1969.6064582046954 548.3219601316002Q1979.652989766959 548.3219601316002 1985.0675415142002 540.3904878456026Q1990.4609426686786 532.4801661523675 1990.4609426686786 516.7864263224733L1990.4609426686786 516.7864263224733Q1990.4609426686786 501.2618912346804 1985.659758111555 493.3304189486827Q1980.8797241471937 485.42009725544756 1971.4254091822843 485.42009725544756L1971.4254091822843 485.42009725544756Q1965.3340384666378 485.42009725544756 1960.2367456108366 489.07914980338785Q1955.1394527550353 492.73820235132814 1951.3323460577565 498.21620587685726L1951.3323460577565 498.21620587685726L1951.3323460577565 537.9581696778966Q1954.5260855649183 542.8228060133085 1959.2426677509918 545.5723830724544Q1963.959249937065 548.3219601316002 1969.6064582046954 548.3219601316002L1969.6064582046954 548.3219601316002ZM2046.8061217884067 545.2762747737772Q2046.8061217884067 539.6290665061467 2050.697830856736 535.7585080305798Q2054.568389332303 531.8667989622504 2060.215597599934 531.8667989622504L2060.215597599934 531.8667989622504Q2065.9897094241396 531.8667989622504 2069.7968161214185 535.7585080305798Q2073.6039228186974 539.6290665061467 2073.6039228186974 545.2762747737772L2073.6039228186974 545.2762747737772Q2073.6039228186974 551.0503865979836 2069.7968161214185 554.8574932952624Q2065.9897094241396 558.6645999925413 2060.215597599934 558.6645999925413L2060.215597599934 558.6645999925413Q2054.568389332303 558.6645999925413 2050.697830856736 554.7940415169744Q2046.8061217884067 550.902332448645 2046.8061217884067 545.2762747737772L2046.8061217884067 545.2762747737772ZM2151.734212483966 439.2695038473221Q2156.0066322220237 439.2695038473221 2158.5870045390684 441.7864243860787Q2161.1673768561122 444.3033449248353 2161.1673768561122 448.25850577145286L2161.1673768561122 448.25850577145286Q2161.1673768561122 452.21366661807036 2158.5870045390684 454.73058715682697Q2156.0066322220237 457.24750769558364 2151.734212483966 457.24750769558364L2151.734212483966 457.24750769558364Q2147.6309974880096 457.24750769558364 2145.114076949253 454.73058715682697Q2142.5971564104966 452.21366661807036 2142.5971564104966 448.25850577145286L2142.5971564104966 448.25850577145286Q2142.5971564104966 444.3033449248353 2145.114076949253 441.7864243860787Q2147.6309974880096 439.2695038473221 2151.734212483966 439.2695038473221L2151.734212483966 439.2695038473221ZM2161.9287981955686 476.74835422275675L2161.9287981955686 546.7991174526887L2184.475330080565 546.7991174526887L2184.475330080565 556.9937031642912L2124.471098412897 556.9937031642912L2124.471098412897 546.7991174526887L2149.1538401669213 546.7991174526887L2149.1538401669213 486.9429399343592L2125.2325197523523 486.9429399343592L2125.2325197523523 476.74835422275675L2161.9287981955686 476.74835422275675ZM2243.252827367998 475.05630680174386Q2259.856042686687 475.05630680174386 2268.760442239767 486.26612096595403Q2277.6648417928473 497.4547845374015 2277.6648417928473 516.7864263224733L2277.6648417928473 516.7864263224733Q2277.6648417928473 535.6739056595293 2268.612388090429 547.1798281224167Q2259.5599343880103 558.6645999925413 2243.10477321866 558.6645999925413L2243.10477321866 558.6645999925413Q2226.501557899972 558.6645999925413 2217.5125559758408 547.4759364210938Q2208.5447046444724 536.2872728496463 2208.5447046444724 516.9344804718119L2208.5447046444724 516.9344804718119Q2208.5447046444724 497.89894698541735 2217.597158346891 486.47762689358063Q2226.6496120493102 475.05630680174386 2243.252827367998 475.05630680174386L2243.252827367998 475.05630680174386ZM2243.252827367998 485.5681514047862Q2232.7409827649562 485.5681514047862 2227.5802381308667 493.3304189486827Q2222.3983429040154 501.1138370853418 2222.3983429040154 516.9344804718119L2222.3983429040154 516.9344804718119Q2222.3983429040154 532.7762744510447 2227.4956357598167 540.4750902166531Q2232.592928615618 548.152755389499 2243.10477321866 548.152755389499L2243.10477321866 548.152755389499Q2253.6166178217027 548.152755389499 2258.713910677503 540.4750902166531Q2263.811203533305 532.7762744510447 2263.811203533305 516.7864263224733L2263.811203533305 516.7864263224733Q2263.811203533305 500.94463234324047 2258.713910677503 493.2669671703947Q2253.6166178217027 485.5681514047862 2243.252827367998 485.5681514047862L2243.252827367998 485.5681514047862Z " fill="#ffffff" transform="matrix(0.3841653826243848,0,0,0.3841653826243848,0,102.43543113063177)"/></g></svg>